<svg width="63" height="57" viewBox="0 0 63 57" fill="none" xmlns="http://www.w3.org/2000/svg">
<path d="M55.0984 25.5502C55.0984 38.5841 44.5324 49.1502 31.4984 49.1502C18.4645 49.1502 7.89844 38.5841 7.89844 25.5502C7.89844 12.5163 18.4645 1.9502 31.4984 1.9502C44.5324 1.9502 55.0984 12.5163 55.0984 25.5502Z" fill="#FFBB0D"/>
<path fill-rule="evenodd" clip-rule="evenodd" d="M56.8467 25.5503C56.8467 39.5497 45.4979 50.8984 31.4985 50.8984C17.4991 50.8984 6.15039 39.5497 6.15039 25.5503C6.15039 11.5509 17.4991 0.202148 31.4985 0.202148C45.4979 0.202148 56.8467 11.5509 56.8467 25.5503ZM31.4985 49.1503C44.5325 49.1503 55.0985 38.5842 55.0985 25.5503C55.0985 12.5164 44.5325 1.9503 31.4985 1.9503C18.4646 1.9503 7.89854 12.5164 7.89854 25.5503C7.89854 38.5842 18.4646 49.1503 31.4985 49.1503Z" fill="#E89B05"/>
<path fill-rule="evenodd" clip-rule="evenodd" d="M9.64712 26.4243C9.16438 26.4243 8.77305 26.033 8.77305 25.5502C8.77305 12.9991 18.9478 2.82431 31.499 2.82432C31.9817 2.82432 32.373 3.21565 32.373 3.69839C32.373 4.18113 31.9817 4.57246 31.499 4.57246C19.9133 4.57246 10.5212 13.9645 10.5212 25.5502C10.5212 26.033 10.1299 26.4243 9.64712 26.4243Z" fill="#E8AA0A"/>
<path fill-rule="evenodd" clip-rule="evenodd" d="M53.3509 24.6763C53.8337 24.6763 54.225 25.0676 54.225 25.5503C54.225 38.1015 44.0503 48.2763 31.4991 48.2763C31.0163 48.2763 30.625 47.8849 30.625 47.4022C30.625 46.9195 31.0163 46.5281 31.4991 46.5281C43.0848 46.5281 52.4769 37.1361 52.4769 25.5503C52.4769 25.0676 52.8682 24.6763 53.3509 24.6763Z" fill="#E8AA0A"/>
<path d="M48.9805 25.5503C48.9805 35.2051 41.1538 43.0318 31.4991 43.0318C21.8443 43.0318 14.0176 35.2051 14.0176 25.5503C14.0176 15.8956 21.8443 8.06885 31.4991 8.06885C41.1538 8.06885 48.9805 15.8956 48.9805 25.5503Z" fill="#FFDD28"/>
<path fill-rule="evenodd" clip-rule="evenodd" d="M50.7288 25.5504C50.7288 36.1707 42.1194 44.7801 31.4992 44.7801C20.8789 44.7801 12.2695 36.1707 12.2695 25.5504C12.2695 14.9302 20.8789 6.3208 31.4992 6.3208C42.1194 6.3208 50.7288 14.9302 50.7288 25.5504ZM31.4992 43.0319C41.1539 43.0319 48.9806 35.2052 48.9806 25.5504C48.9806 15.8957 41.1539 8.06895 31.4992 8.06895C21.8444 8.06895 14.0177 15.8957 14.0177 25.5504C14.0177 35.2052 21.8444 43.0319 31.4992 43.0319Z" fill="#E89B05"/>
<path fill-rule="evenodd" clip-rule="evenodd" d="M31.4981 40.4096C39.7046 40.4096 46.3573 33.7568 46.3573 25.5503C46.3573 25.0676 46.7487 24.6762 47.2314 24.6762C47.7141 24.6762 48.1055 25.0676 48.1055 25.5503C48.1055 34.7223 40.6701 42.1577 31.4981 42.1577C31.0153 42.1577 30.624 41.7664 30.624 41.2836C30.624 40.8009 31.0153 40.4096 31.4981 40.4096Z" fill="#ECC704"/>
<path fill-rule="evenodd" clip-rule="evenodd" d="M31.498 10.691C23.2915 10.691 16.6388 17.3437 16.6388 25.5503C16.6388 26.033 16.2474 26.4244 15.7647 26.4244C15.282 26.4244 14.8906 26.033 14.8906 25.5503C14.8906 16.3783 22.326 8.94287 31.498 8.94287C31.9808 8.94287 32.3721 9.33421 32.3721 9.81695C32.3721 10.2997 31.9808 10.691 31.498 10.691Z" fill="#FFEF9C"/>
<path d="M4.78486 48.8207L2.53343 44.3178C2.28825 43.8274 2.64482 43.2505 3.19307 43.2505L13.0623 43.2505C13.4696 43.2505 13.7998 43.5807 13.7998 43.988L13.7998 54.313C13.7998 54.7203 13.4696 55.0505 13.0623 55.0505L3.19307 55.0505C2.64482 55.0505 2.28825 54.4735 2.53343 53.9832L4.78486 49.4803C4.88868 49.2727 4.88868 49.0283 4.78486 48.8207Z" fill="#C52229"/>
<path d="M58.2147 48.8207L60.4661 44.3178C60.7113 43.8274 60.3547 43.2505 59.8065 43.2505L49.9373 43.2505C49.53 43.2505 49.1998 43.5807 49.1998 43.988L49.1998 54.313C49.1998 54.7203 49.53 55.0505 49.9373 55.0505L59.8065 55.0505C60.3547 55.0505 60.7113 54.4735 60.4661 53.9832L58.2147 49.4803C58.1109 49.2727 58.1109 49.0283 58.2147 48.8207Z" fill="#C52229"/>
<path fill-rule="evenodd" clip-rule="evenodd" d="M3.30033 49.1504L1.21381 44.9773C0.478271 43.5063 1.54799 41.7754 3.19273 41.7754L13.0619 41.7754C14.2839 41.7754 15.2744 42.766 15.2744 43.9879L15.2744 54.3129C15.2744 55.5348 14.2839 56.5254 13.0619 56.5254L3.19273 56.5254C1.54798 56.5254 0.478271 54.7945 1.21381 53.3234L3.30033 49.1504ZM3.46481 49.4794C3.46496 49.4796 3.4651 49.4799 3.46525 49.4802L4.12489 49.1504L3.46524 49.4802L3.46481 49.4794ZM59.6985 49.1504L61.785 44.9774C62.5206 43.5063 61.4509 41.7754 59.8061 41.7754L49.9369 41.7754C48.715 41.7754 47.7244 42.766 47.7244 43.9879L47.7244 54.3129C47.7244 55.5348 48.715 56.5254 49.9369 56.5254L59.8061 56.5254C61.4509 56.5254 62.5206 54.7945 61.785 53.3234L59.6985 49.1504ZM60.4658 44.3177L58.2143 48.8206C58.1105 49.0282 58.1105 49.2726 58.2143 49.4802L60.4658 53.9831C60.711 54.4734 60.3544 55.0504 59.8061 55.0504L49.9369 55.0504C49.5296 55.0504 49.1994 54.7202 49.1994 54.3129L49.1994 43.9879C49.1994 43.5806 49.5296 43.2504 49.9369 43.2504L59.8061 43.2504C60.3544 43.2504 60.711 43.8273 60.4658 44.3177ZM2.53309 44.3177L4.78452 48.8206C4.88834 49.0282 4.88834 49.2726 4.78452 49.4802L2.53309 53.9831C2.28791 54.4734 2.64448 55.0504 3.19273 55.0504L13.0619 55.0504C13.4692 55.0504 13.7994 54.7202 13.7994 54.3129L13.7994 43.9879C13.7994 43.5806 13.4692 43.2504 13.0619 43.2504L3.19273 43.2504C2.64449 43.2504 2.28791 43.8273 2.53309 44.3177Z" fill="#9B0F15"/>
<path fill-rule="evenodd" clip-rule="evenodd" d="M3.58818 43.917C3.72323 43.7027 3.95881 43.5728 4.21211 43.5728H7.34649C7.7538 43.5728 8.08399 43.9029 8.08399 44.3103C8.08399 44.7176 7.7538 45.0478 7.34649 45.0478H5.38233L6.90556 48.2327C7.0813 48.6001 6.92588 49.0405 6.55843 49.2162C6.19099 49.3919 5.75065 49.2365 5.57491 48.8691L3.54679 44.6285C3.4375 44.3999 3.45313 44.1313 3.58818 43.917Z" fill="#DF3840"/>
<path d="M52.1504 51.3628L52.1504 41.0378C52.1504 40.6305 51.8202 40.3003 51.4129 40.3003L11.5879 40.3003C11.1806 40.3003 10.8504 40.6305 10.8504 41.0378L10.8504 51.3628C10.8504 51.7701 11.1806 52.1003 11.5879 52.1003L51.4129 52.1003C51.8202 52.1003 52.1504 51.7701 52.1504 51.3628Z" fill="#F1333B"/>
<path fill-rule="evenodd" clip-rule="evenodd" d="M53.625 41.0377L53.625 51.3627C53.625 52.5846 52.6344 53.5752 51.4125 53.5752L11.5875 53.5752C10.3656 53.5752 9.375 52.5846 9.375 51.3627L9.375 41.0377C9.375 39.8158 10.3656 38.8252 11.5875 38.8252L51.4125 38.8252C52.6344 38.8252 53.625 39.8158 53.625 41.0377ZM52.15 41.0377L52.15 51.3627C52.15 51.77 51.8198 52.1002 51.4125 52.1002L11.5875 52.1002C11.1802 52.1002 10.85 51.77 10.85 51.3627L10.85 41.0377C10.85 40.6304 11.1802 40.3002 11.5875 40.3002L51.4125 40.3002C51.8198 40.3002 52.15 40.6304 52.15 41.0377Z" fill="#9B0F15"/>
<path d="M50.113 46.4803C49.6954 46.4803 49.3568 46.15 49.3568 45.7426C49.3568 45.3352 49.6954 45.0049 50.113 45.0049C50.5306 45.0049 50.8691 45.3352 50.8691 45.7426C50.8691 46.15 50.5306 46.4803 50.113 46.4803Z" fill="#DB1B24"/>
<path d="M47.2352 46.1849C46.7157 46.1849 46.2946 45.7741 46.2946 45.2673C46.2946 44.7605 46.7157 44.3496 47.2352 44.3496C47.7547 44.3496 48.1758 44.7605 48.1758 45.2673C48.1758 45.7741 47.7547 46.1849 47.2352 46.1849Z" fill="#DB1B24"/>
<path d="M48.516 48.2834C48.2563 48.2834 48.0457 48.078 48.0457 47.8246C48.0457 47.5711 48.2563 47.3657 48.516 47.3657C48.7758 47.3657 48.9863 47.5711 48.9863 47.8246C48.9863 48.078 48.7758 48.2834 48.516 48.2834Z" fill="#DB1B24"/>
<path d="M47.7055 43.4304C47.4457 43.4304 47.2352 43.2249 47.2352 42.9715C47.2352 42.7181 47.4457 42.5127 47.7055 42.5127C47.9652 42.5127 48.1758 42.7181 48.1758 42.9715C48.1758 43.2249 47.9652 43.4304 47.7055 43.4304Z" fill="#DB1B24"/>
<path d="M45.2348 47.8244C44.975 47.8244 44.7645 47.619 44.7645 47.3656C44.7645 47.1122 44.975 46.9067 45.2348 46.9067C45.4945 46.9067 45.7051 47.1122 45.7051 47.3656C45.7051 47.619 45.4945 47.8244 45.2348 47.8244Z" fill="#DB1B24"/>
<path d="M44.7641 45.4636C44.5043 45.4636 44.2938 45.2581 44.2938 45.0047C44.2938 44.7513 44.5043 44.5459 44.7641 44.5459C45.0238 44.5459 45.2344 44.7513 45.2344 45.0047C45.2344 45.2581 45.0238 45.4636 44.7641 45.4636Z" fill="#DB1B24"/>
<path d="M41.557 50.7858C41.2973 50.7858 41.0868 50.5804 41.0868 50.327C41.0868 50.0736 41.2973 49.8682 41.557 49.8682C41.8168 49.8682 42.0273 50.0736 42.0273 50.327C42.0273 50.5804 41.8168 50.7858 41.557 50.7858Z" fill="#DB1B24"/>
<path d="M50.9145 49.0344C50.6547 49.0344 50.4442 48.8289 50.4442 48.5755C50.4442 48.3221 50.6547 48.1167 50.9145 48.1167C51.1742 48.1167 51.3848 48.3221 51.3848 48.5755C51.3848 48.8289 51.1742 49.0344 50.9145 49.0344Z" fill="#DB1B24"/>
<path d="M46.469 50.0393C46.0463 50.0393 45.7036 49.705 45.7036 49.2926C45.7036 48.8802 46.0463 48.5459 46.469 48.5459C46.8917 48.5459 47.2344 48.8802 47.2344 49.2926C47.2344 49.705 46.8917 50.0393 46.469 50.0393Z" fill="#DB1B24"/>
<path d="M49.7522 50.7859C49.3295 50.7859 48.9868 50.4516 48.9868 50.0392C48.9868 49.6268 49.3295 49.2925 49.7522 49.2925C50.1749 49.2925 50.5176 49.6268 50.5176 50.0392C50.5176 50.4516 50.1749 50.7859 49.7522 50.7859Z" fill="#DB1B24"/>
<path d="M43.0569 49.3177C42.6342 49.3177 42.2915 48.9833 42.2915 48.5709C42.2915 48.1585 42.6342 47.8242 43.0569 47.8242C43.4796 47.8242 43.8223 48.1585 43.8223 48.5709C43.8223 48.9833 43.4796 49.3177 43.0569 49.3177Z" fill="#DB1B24"/>
<path d="M44.2934 51.0129C44.0336 51.0129 43.8231 50.8074 43.8231 50.554C43.8231 50.3006 44.0336 50.0952 44.2934 50.0952C44.5531 50.0952 44.7637 50.3006 44.7637 50.554C44.7637 50.8074 44.5531 51.0129 44.2934 51.0129Z" fill="#DB1B24"/>
<path fill-rule="evenodd" clip-rule="evenodd" d="M11.3105 41.3605C11.3105 40.9532 11.6407 40.623 12.048 40.623H39.7043C40.1116 40.623 40.4418 40.9532 40.4418 41.3605C40.4418 41.7679 40.1116 42.098 39.7043 42.098H12.7855V47.2605C12.7855 47.6679 12.4554 47.998 12.048 47.998C11.6407 47.998 11.3105 47.6679 11.3105 47.2605V41.3605Z" fill="#FE666D"/>
<path d="M22.7852 23.4908L28.231 22.3818L29.8648 19.6094L31.4986 16.8369L34.7661 22.3818L40.212 23.4908L35.8553 27.9267L36.9445 33.4716L31.4986 30.6992L26.0527 33.4716L27.1419 27.9267L22.7852 23.4908Z" fill="#FFEF9C"/>
<path fill-rule="evenodd" clip-rule="evenodd" d="M28.2314 22.3816L31.4989 16.8367L34.7664 22.3816L40.2123 23.4906L35.8556 27.9265L36.9448 33.4714L31.4989 30.699L26.053 33.4714L27.1422 27.9265L22.7855 23.4906L28.2314 22.3816ZM25.4266 28.4407L21.6552 24.6007C21.2483 24.1864 21.1006 23.5826 21.2705 23.0273C21.4403 22.472 21.9003 22.0541 22.4693 21.9382L27.2244 20.9699L30.134 16.0324C30.4188 15.5491 30.9379 15.2524 31.4989 15.2524C32.0599 15.2524 32.579 15.5491 32.8638 16.0324L35.7734 20.9699L40.5284 21.9382C41.0975 22.0541 41.5575 22.472 41.7273 23.0273C41.8971 23.5826 41.7495 24.1864 41.3426 24.6007L37.5711 28.4407L38.4993 33.1661C38.6162 33.7609 38.3834 34.3702 37.8997 34.7356C37.416 35.1009 36.7662 35.1583 36.226 34.8833L31.4989 32.4767L26.7718 34.8833C26.2316 35.1583 25.5818 35.1009 25.0981 34.7356C24.6144 34.3702 24.3816 33.7609 24.4985 33.1661L25.4266 28.4407Z" fill="#E89B05"/>
</svg>
