<svg width="100" height="100" viewBox="0 0 100 100" fill="none" xmlns="http://www.w3.org/2000/svg">
<mask id="mask0_11_906" style="mask-type:alpha" maskUnits="userSpaceOnUse" x="12" y="8" width="76" height="84">
<path d="M66.6519 58.333C78.1547 58.333 87.4796 67.6604 87.4796 79.1663V87.4997C87.4796 89.8009 85.6146 91.6664 83.314 91.6664C81.0135 91.6664 79.1485 89.8009 79.1485 87.4997V79.1663C79.1485 72.2628 73.5536 66.6663 66.6519 66.6663H33.3277C26.426 66.6663 20.8311 72.2628 20.8311 79.1663V87.4997C20.8311 89.8009 18.9661 91.6664 16.6655 91.6664C14.365 91.6664 12.5 89.8009 12.5 87.4997V79.1663C12.5 67.6604 21.8249 58.333 33.3277 58.333H66.6519ZM49.9898 8.33301C61.4926 8.33301 70.8175 17.6604 70.8175 29.1663C70.8175 40.6723 61.4926 49.9997 49.9898 49.9997C38.487 49.9997 29.1621 40.6723 29.1621 29.1663C29.1621 17.6604 38.487 8.33301 49.9898 8.33301ZM49.9898 16.6663C43.0881 16.6663 37.4932 22.2628 37.4932 29.1663C37.4932 36.0699 43.0881 41.6663 49.9898 41.6663C56.8915 41.6663 62.4864 36.0699 62.4864 29.1663C62.4864 22.2628 56.8915 16.6663 49.9898 16.6663Z" fill="white"/>
</mask>
<g mask="url(#mask0_11_906)">
<path d="M66.6519 58.333C78.1547 58.333 87.4796 67.6604 87.4796 79.1663V87.4997C87.4796 89.8009 85.6146 91.6664 83.314 91.6664C81.0135 91.6664 79.1485 89.8009 79.1485 87.4997V79.1663C79.1485 72.2628 73.5536 66.6663 66.6519 66.6663H33.3277C26.426 66.6663 20.8311 72.2628 20.8311 79.1663V87.4997C20.8311 89.8009 18.9661 91.6664 16.6655 91.6664C14.365 91.6664 12.5 89.8009 12.5 87.4997V79.1663C12.5 67.6604 21.8249 58.333 33.3277 58.333H66.6519ZM49.9898 8.33301C61.4926 8.33301 70.8175 17.6604 70.8175 29.1663C70.8175 40.6723 61.4926 49.9997 49.9898 49.9997C38.487 49.9997 29.1621 40.6723 29.1621 29.1663C29.1621 17.6604 38.487 8.33301 49.9898 8.33301ZM49.9898 16.6663C43.0881 16.6663 37.4932 22.2628 37.4932 29.1663C37.4932 36.0699 43.0881 41.6663 49.9898 41.6663C56.8915 41.6663 62.4864 36.0699 62.4864 29.1663C62.4864 22.2628 56.8915 16.6663 49.9898 16.6663Z" fill="#9BB8D3"/>
<path d="M99.9761 0H0.00292969V100H99.9761V0Z" fill="#9BB8D3"/>
</g>
</svg>
